solid OpenSCAD_Model
  facet normal 0 0.97648 -0.215606
    outer loop
      vertex 0 0.12549 0.568342
      vertex -0.509812 0.551999 2.5
      vertex 0.509812 0.551999 2.5
    endloop
  endfacet
  facet normal -0 -0.97648 -0.215606
    outer loop
      vertex 0.509812 -0.551999 2.5
      vertex -0.509812 -0.551999 2.5
      vertex 0 -0.12549 0.568342
    endloop
  endfacet
  facet normal -0 0 1
    outer loop
      vertex -0.509812 0.551999 2.5
      vertex 0.509812 -0.551999 2.5
      vertex 0.509812 0.551999 2.5
    endloop
  endfacet
  facet normal 0 0 1
    outer loop
      vertex 0.509812 -0.551999 2.5
      vertex -0.509812 0.551999 2.5
      vertex -0.509812 -0.551999 2.5
    endloop
  endfacet
  facet normal -0.966892 0 -0.255187
    outer loop
      vertex 0 -0.12549 0.568342
      vertex -0.509812 0.551999 2.5
      vertex 0 0.12549 0.568342
    endloop
  endfacet
  facet normal -0.966892 -0 -0.255187
    outer loop
      vertex -0.509812 0.551999 2.5
      vertex 0 -0.12549 0.568342
      vertex -0.509812 -0.551999 2.5
    endloop
  endfacet
  facet normal 0.966892 0 -0.255187
    outer loop
      vertex 0.509812 0.551999 2.5
      vertex 0 -0.12549 0.568342
      vertex 0 0.12549 0.568342
    endloop
  endfacet
  facet normal 0.966892 0 -0.255187
    outer loop
      vertex 0 -0.12549 0.568342
      vertex 0.509812 0.551999 2.5
      vertex 0.509812 -0.551999 2.5
    endloop
  endfacet
endsolid OpenSCAD_Model
