solid OpenSCAD_Model
  facet normal 0 0.97648 -0.215607
    outer loop
      vertex 0 0.12549 0.568342
      vertex -26.2425 22.08 100
      vertex 26.2425 22.08 100
    endloop
  endfacet
  facet normal -0 -0.97648 -0.215607
    outer loop
      vertex 26.2425 -22.08 100
      vertex -26.2425 -22.08 100
      vertex 0 -0.12549 0.568342
    endloop
  endfacet
  facet normal -0 0 1
    outer loop
      vertex -26.2425 22.08 100
      vertex 26.2425 -22.08 100
      vertex 26.2425 22.08 100
    endloop
  endfacet
  facet normal 0 0 1
    outer loop
      vertex 26.2425 -22.08 100
      vertex -26.2425 22.08 100
      vertex -26.2425 -22.08 100
    endloop
  endfacet
  facet normal -0.966892 0 -0.255187
    outer loop
      vertex 0 -0.12549 0.568342
      vertex -26.2425 22.08 100
      vertex 0 0.12549 0.568342
    endloop
  endfacet
  facet normal -0.966892 -0 -0.255187
    outer loop
      vertex -26.2425 22.08 100
      vertex 0 -0.12549 0.568342
      vertex -26.2425 -22.08 100
    endloop
  endfacet
  facet normal 0.966892 0 -0.255187
    outer loop
      vertex 26.2425 22.08 100
      vertex 0 -0.12549 0.568342
      vertex 0 0.12549 0.568342
    endloop
  endfacet
  facet normal 0.966892 0 -0.255187
    outer loop
      vertex 0 -0.12549 0.568342
      vertex 26.2425 22.08 100
      vertex 26.2425 -22.08 100
    endloop
  endfacet
endsolid OpenSCAD_Model
