solid OpenSCAD_Model
  facet normal 0 0.979082 -0.203465
    outer loop
      vertex 0 0.418301 2.01288
      vertex -98.36 41.5624 200
      vertex 98.36 41.5624 200
    endloop
  endfacet
  facet normal -0 -0.979082 -0.203465
    outer loop
      vertex 98.36 -41.5624 200
      vertex -98.36 -41.5624 200
      vertex 0 -0.418301 2.01288
    endloop
  endfacet
  facet normal -0 0 1
    outer loop
      vertex -98.36 41.5624 200
      vertex 98.36 -41.5624 200
      vertex 98.36 41.5624 200
    endloop
  endfacet
  facet normal 0 0 1
    outer loop
      vertex 98.36 -41.5624 200
      vertex -98.36 41.5624 200
      vertex -98.36 -41.5624 200
    endloop
  endfacet
  facet normal -0.895571 0 -0.444919
    outer loop
      vertex 0 -0.418301 2.01288
      vertex -98.36 41.5624 200
      vertex 0 0.418301 2.01288
    endloop
  endfacet
  facet normal -0.895571 -0 -0.444919
    outer loop
      vertex -98.36 41.5624 200
      vertex 0 -0.418301 2.01288
      vertex -98.36 -41.5624 200
    endloop
  endfacet
  facet normal 0.895571 0 -0.444919
    outer loop
      vertex 98.36 41.5624 200
      vertex 0 -0.418301 2.01288
      vertex 0 0.418301 2.01288
    endloop
  endfacet
  facet normal 0.895571 0 -0.444919
    outer loop
      vertex 0 -0.418301 2.01288
      vertex 98.36 41.5624 200
      vertex 98.36 -41.5624 200
    endloop
  endfacet
endsolid OpenSCAD_Model
