solid OpenSCAD_Model
  facet normal 0.895571 0 -0.444919
    outer loop
      vertex 100.36 -41.5624 200
      vertex 1 0 0
      vertex 100.36 41.5624 200
    endloop
  endfacet
  facet normal 0 0.979082 -0.203465
    outer loop
      vertex 100.36 41.5624 200
      vertex 0 0.418301 2.01288
      vertex -100.36 41.5624 200
    endloop
  endfacet
  facet normal 1.86731e-07 0.979082 -0.203465
    outer loop
      vertex 0 0.418301 2.01288
      vertex 100.36 41.5624 200
      vertex 1 0 0
    endloop
  endfacet
  facet normal -1.86731e-07 0.979082 -0.203465
    outer loop
      vertex -100.36 41.5624 200
      vertex 0 0.418301 2.01288
      vertex -1 0 0
    endloop
  endfacet
  facet normal 0 -0.979082 -0.203465
    outer loop
      vertex -100.36 -41.5624 200
      vertex 0 -0.418301 2.01288
      vertex 100.36 -41.5624 200
    endloop
  endfacet
  facet normal -1.86731e-07 -0.979082 -0.203465
    outer loop
      vertex 0 -0.418301 2.01288
      vertex -100.36 -41.5624 200
      vertex -1 0 0
    endloop
  endfacet
  facet normal 1.86731e-07 -0.979082 -0.203465
    outer loop
      vertex 100.36 -41.5624 200
      vertex 0 -0.418301 2.01288
      vertex 1 0 0
    endloop
  endfacet
  facet normal -0 0 1
    outer loop
      vertex -100.36 41.5624 200
      vertex 100.36 -41.5624 200
      vertex 100.36 41.5624 200
    endloop
  endfacet
  facet normal 0 0 1
    outer loop
      vertex 100.36 -41.5624 200
      vertex -100.36 41.5624 200
      vertex -100.36 -41.5624 200
    endloop
  endfacet
  facet normal -0.89557 0 -0.44492
    outer loop
      vertex 1 0 0
      vertex 0 -0.418301 2.01288
      vertex 0 0.418301 2.01288
    endloop
  endfacet
  facet normal 0.89557 0 -0.44492
    outer loop
      vertex 0 -0.418301 2.01288
      vertex -1 0 0
      vertex 0 0.418301 2.01288
    endloop
  endfacet
  facet normal -0.895571 0 -0.444919
    outer loop
      vertex -1 0 0
      vertex -100.36 -41.5624 200
      vertex -100.36 41.5624 200
    endloop
  endfacet
endsolid OpenSCAD_Model
