solid OpenSCAD_Model
  facet normal 0.966892 0 -0.255186
    outer loop
      vertex 1.46962 -1.104 5
      vertex 0.15 0 0
      vertex 1.46962 1.104 5
    endloop
  endfacet
  facet normal 0 0.97648 -0.215607
    outer loop
      vertex 1.46962 1.104 5
      vertex 0 0.12549 0.568342
      vertex -1.46962 1.104 5
    endloop
  endfacet
  facet normal 2.81227e-07 0.97648 -0.215607
    outer loop
      vertex 0 0.12549 0.568342
      vertex 1.46962 1.104 5
      vertex 0.15 0 0
    endloop
  endfacet
  facet normal -2.81227e-07 0.97648 -0.215607
    outer loop
      vertex -1.46962 1.104 5
      vertex 0 0.12549 0.568342
      vertex -0.15 0 0
    endloop
  endfacet
  facet normal 0 -0.97648 -0.215607
    outer loop
      vertex -1.46962 -1.104 5
      vertex 0 -0.12549 0.568342
      vertex 1.46962 -1.104 5
    endloop
  endfacet
  facet normal -2.81227e-07 -0.97648 -0.215607
    outer loop
      vertex 0 -0.12549 0.568342
      vertex -1.46962 -1.104 5
      vertex -0.15 0 0
    endloop
  endfacet
  facet normal 2.81227e-07 -0.97648 -0.215607
    outer loop
      vertex 1.46962 -1.104 5
      vertex 0 -0.12549 0.568342
      vertex 0.15 0 0
    endloop
  endfacet
  facet normal -0 0 1
    outer loop
      vertex -1.46962 1.104 5
      vertex 1.46962 -1.104 5
      vertex 1.46962 1.104 5
    endloop
  endfacet
  facet normal 0 0 1
    outer loop
      vertex 1.46962 -1.104 5
      vertex -1.46962 1.104 5
      vertex -1.46962 -1.104 5
    endloop
  endfacet
  facet normal -0.966892 0 -0.255187
    outer loop
      vertex 0.15 0 0
      vertex 0 -0.12549 0.568342
      vertex 0 0.12549 0.568342
    endloop
  endfacet
  facet normal 0.966892 0 -0.255187
    outer loop
      vertex 0 -0.12549 0.568342
      vertex -0.15 0 0
      vertex 0 0.12549 0.568342
    endloop
  endfacet
  facet normal -0.966892 0 -0.255186
    outer loop
      vertex -0.15 0 0
      vertex -1.46962 -1.104 5
      vertex -1.46962 1.104 5
    endloop
  endfacet
endsolid OpenSCAD_Model
