solid OpenSCAD_Model
  facet normal 0 0.97648 -0.215607
    outer loop
      vertex 0 0.12549 0.568342
      vertex -1.16962 1.104 5
      vertex 1.16962 1.104 5
    endloop
  endfacet
  facet normal -0 -0.97648 -0.215607
    outer loop
      vertex 1.16962 -1.104 5
      vertex -1.16962 -1.104 5
      vertex 0 -0.12549 0.568342
    endloop
  endfacet
  facet normal -0 0 1
    outer loop
      vertex -1.16962 1.104 5
      vertex 1.16962 -1.104 5
      vertex 1.16962 1.104 5
    endloop
  endfacet
  facet normal 0 0 1
    outer loop
      vertex 1.16962 -1.104 5
      vertex -1.16962 1.104 5
      vertex -1.16962 -1.104 5
    endloop
  endfacet
  facet normal -0.966892 0 -0.255186
    outer loop
      vertex 0 -0.12549 0.568342
      vertex -1.16962 1.104 5
      vertex 0 0.12549 0.568342
    endloop
  endfacet
  facet normal -0.966892 -0 -0.255186
    outer loop
      vertex -1.16962 1.104 5
      vertex 0 -0.12549 0.568342
      vertex -1.16962 -1.104 5
    endloop
  endfacet
  facet normal 0.966892 0 -0.255186
    outer loop
      vertex 1.16962 1.104 5
      vertex 0 -0.12549 0.568342
      vertex 0 0.12549 0.568342
    endloop
  endfacet
  facet normal 0.966892 0 -0.255186
    outer loop
      vertex 0 -0.12549 0.568342
      vertex 1.16962 1.104 5
      vertex 1.16962 -1.104 5
    endloop
  endfacet
endsolid OpenSCAD_Model
